<svg width="166" height="31" viewBox="0 0 166 31" fill="none" xmlns="http://www.w3.org/2000/svg">
<path d="M3.54785 1.70215H7.95703V7.3623H12.7969V11.0742H7.95703V22.5586C7.95703 23.7207 8.20996 24.5718 8.71582 25.1118C9.22168 25.6519 10.0215 25.9219 11.1152 25.9219C11.5527 25.9219 12.1133 25.8877 12.7969 25.8193V29.4902C11.9219 29.6406 11.1221 29.7158 10.3975 29.7158C7.9502 29.7158 6.19678 29.251 5.13721 28.3213C4.07764 27.3916 3.54785 25.8467 3.54785 23.6865V11.0742H0V7.3623H3.54785V1.70215Z" fill="#141414"/>
<path d="M29.2232 12.1611C28.2389 11.1084 26.9332 10.582 25.3062 10.582C23.6793 10.582 22.3394 11.1084 21.2867 12.1611C20.234 13.2139 19.6461 14.6152 19.523 16.3652H30.8023C30.7477 14.6016 30.2213 13.2002 29.2232 12.1611ZM30.7818 23.5635H35.0269C34.5211 25.5732 33.4171 27.1523 31.7149 28.3008C30.0128 29.4492 27.8902 30.0234 25.3473 30.0234C22.148 30.0234 19.629 28.9946 17.7901 26.937C15.9513 24.8794 15.0318 22.0664 15.0318 18.498C15.0318 14.9297 15.9615 12.0928 17.8209 9.9873C19.6803 7.88184 22.1822 6.8291 25.3268 6.8291C28.4303 6.8291 30.8673 7.82715 32.6378 9.82324C34.4083 11.8193 35.2936 14.5742 35.2936 18.0879V19.626H19.523V19.8721C19.5914 21.8408 20.1588 23.3994 21.2252 24.5479C22.2916 25.6963 23.7066 26.2705 25.4703 26.2705C28.1637 26.2705 29.9342 25.3682 30.7818 23.5635Z" fill="#141414"/>
<path d="M38.4719 13.5762C38.4719 11.6074 39.2854 9.99072 40.9123 8.72607C42.5393 7.46143 44.6174 6.8291 47.1467 6.8291C49.6623 6.8291 51.6926 7.38281 53.2375 8.49023C54.7824 9.59766 55.6643 11.1357 55.883 13.1045H51.6584C51.4533 12.2705 50.9577 11.6143 50.1716 11.1357C49.3855 10.6572 48.3772 10.418 47.1467 10.418C45.9025 10.418 44.8703 10.688 44.05 11.228C43.2297 11.7681 42.8195 12.4688 42.8195 13.3301C42.8195 14 43.1066 14.5537 43.6809 14.9912C44.2551 15.4287 45.1506 15.7842 46.3674 16.0576L50.0793 16.9189C52.2258 17.4111 53.8015 18.1426 54.8064 19.1133C55.8112 20.084 56.3137 21.3828 56.3137 23.0098C56.3137 25.0879 55.4455 26.7764 53.7092 28.0752C51.9729 29.374 49.758 30.0234 47.0647 30.0234C44.4123 30.0234 42.2692 29.4595 40.6355 28.3315C39.0017 27.2036 38.0891 25.6484 37.8977 23.666H42.3068C42.5939 24.541 43.1477 25.2246 43.968 25.7168C44.7883 26.209 45.8547 26.4551 47.1672 26.4551C48.548 26.4551 49.676 26.1748 50.551 25.6143C51.426 25.0537 51.8635 24.3291 51.8635 23.4404C51.8635 22.1416 50.7697 21.2324 48.5822 20.7129L44.6857 19.8105C42.5529 19.3047 40.9841 18.5527 39.9792 17.5547C38.9743 16.5566 38.4719 15.2305 38.4719 13.5762Z" fill="#141414"/>
<path d="M61.4197 1.70215H65.8289V7.3623H70.6687V11.0742H65.8289V22.5586C65.8289 23.7207 66.0818 24.5718 66.5877 25.1118C67.0935 25.6519 67.8934 25.9219 68.9871 25.9219C69.4246 25.9219 69.9851 25.8877 70.6687 25.8193V29.4902C69.7937 29.6406 68.9939 29.7158 68.2693 29.7158C65.8221 29.7158 64.0686 29.251 63.0091 28.3213C61.9495 27.3916 61.4197 25.8467 61.4197 23.6865V11.0742H57.8719V7.3623H61.4197V1.70215Z" fill="#141414"/>
<path d="M79.0356 29.5928H74.7699V0H80.143L89.5561 22.4766H89.9047L99.3383 0H104.711V29.5928H100.446V8.22363H100.159L91.4838 28.7314H87.9975L79.3227 8.22363H79.0356V29.5928Z" fill="#3BA7DC"/>
<path d="M117.323 26.25C118.978 26.25 120.355 25.7852 121.456 24.8555C122.556 23.9258 123.106 22.7637 123.106 21.3691V19.5029L117.651 19.8516C116.12 19.9473 114.992 20.2617 114.268 20.7949C113.543 21.3281 113.181 22.0869 113.181 23.0713C113.181 24.0557 113.563 24.8315 114.329 25.3989C115.095 25.9663 116.093 26.25 117.323 26.25ZM116.195 29.9619C114.008 29.9619 112.22 29.3501 110.833 28.1265C109.445 26.9028 108.751 25.2861 108.751 23.2764C108.751 21.2803 109.469 19.7114 110.904 18.5698C112.34 17.4282 114.391 16.7754 117.057 16.6113L123.106 16.2627V14.335C123.106 13.1455 122.717 12.2329 121.938 11.5972C121.158 10.9614 120.023 10.6436 118.533 10.6436C117.303 10.6436 116.281 10.8589 115.467 11.2896C114.654 11.7202 114.124 12.332 113.878 13.125H109.612C109.831 11.2109 110.771 9.68311 112.432 8.5415C114.093 7.3999 116.195 6.8291 118.738 6.8291C121.527 6.8291 123.684 7.48877 125.208 8.80811C126.733 10.1274 127.495 11.9697 127.495 14.335V29.5928H123.25V26.4551H122.901C122.231 27.5762 121.312 28.4409 120.143 29.0493C118.974 29.6577 117.658 29.9619 116.195 29.9619Z" fill="#3BA7DC"/>
<path d="M133.729 1.70215H138.138V7.3623H142.978V11.0742H138.138V22.5586C138.138 23.7207 138.391 24.5718 138.897 25.1118C139.403 25.6519 140.203 25.9219 141.296 25.9219C141.734 25.9219 142.295 25.8877 142.978 25.8193V29.4902C142.103 29.6406 141.303 29.7158 140.579 29.7158C138.131 29.7158 136.378 29.251 135.318 28.3213C134.259 27.3916 133.729 25.8467 133.729 23.6865V11.0742H130.181V7.3623H133.729V1.70215Z" fill="#3BA7DC"/>
<path d="M159.404 12.1611C158.42 11.1084 157.114 10.582 155.487 10.582C153.861 10.582 152.521 11.1084 151.468 12.1611C150.415 13.2139 149.827 14.6152 149.704 16.3652H160.984C160.929 14.6016 160.403 13.2002 159.404 12.1611ZM160.963 23.5635H165.208C164.702 25.5732 163.598 27.1523 161.896 28.3008C160.194 29.4492 158.071 30.0234 155.529 30.0234C152.329 30.0234 149.81 28.9946 147.971 26.937C146.133 24.8794 145.213 22.0664 145.213 18.498C145.213 14.9297 146.143 12.0928 148.002 9.9873C149.862 7.88184 152.363 6.8291 155.508 6.8291C158.612 6.8291 161.049 7.82715 162.819 9.82324C164.59 11.8193 165.475 14.5742 165.475 18.0879V19.626H149.704V19.8721C149.773 21.8408 150.34 23.3994 151.406 24.5479C152.473 25.6963 153.888 26.2705 155.652 26.2705C158.345 26.2705 160.115 25.3682 160.963 23.5635Z" fill="#3BA7DC"/>
</svg>
